<mxfile host="app.diagrams.net" modified="2024-03-09T04:29:39.533Z" agent="Mozilla/5.0 (X11; Linux x86_64; rv:121.0) Gecko/20100101 Firefox/121.0" version="21.6.1" etag="lRtjTBL6FYdqP5BuhLic" type="github">
  <diagram name="Page-1" id="HtVXgBohmVSpBED_S9Pb">
    <mxGraphModel>
      <root>
        <mxCell id="0" />
        <mxCell id="1" parent="0" />
      </root>
    </mxGraphModel>
  </diagram>
</mxfile>
